<?xml version="1.0" encoding="UTF-8" standalone="no"?>
<!-- Created with Inkscape (http://www.inkscape.org/) -->

<svg
   width="135.46666mm"
   height="71.94828mm"
   viewBox="0 0 135.46666 71.94828"
   version="1.1"
   id="svg5"
   inkscape:version="1.1 (1:1.1+202106031931+af4d65493e)"
   sodipodi:docname="logo.svg"
   inkscape:export-filename="/home/pi/Downloads/logo.png"
   inkscape:export-xdpi="96"
   inkscape:export-ydpi="96"
   xmlns:inkscape="http://www.inkscape.org/namespaces/inkscape"
   xmlns:sodipodi="http://sodipodi.sourceforge.net/DTD/sodipodi-0.dtd"
   xmlns="http://www.w3.org/2000/svg"
   xmlns:svg="http://www.w3.org/2000/svg">
  <sodipodi:namedview
     id="namedview7"
     pagecolor="#ffffff"
     bordercolor="#666666"
     borderopacity="1.0"
     inkscape:pageshadow="2"
     inkscape:pageopacity="0.0"
     inkscape:pagecheckerboard="0"
     inkscape:document-units="mm"
     showgrid="false"
     inkscape:zoom="0.70710678"
     inkscape:cx="113.84419"
     inkscape:cy="176.06959"
     inkscape:window-width="1366"
     inkscape:window-height="707"
     inkscape:window-x="1366"
     inkscape:window-y="30"
     inkscape:window-maximized="1"
     inkscape:current-layer="text3051" />
  <defs
     id="defs2" />
  <g
     inkscape:label="Layer 1"
     inkscape:groupmode="layer"
     id="layer1"
     transform="translate(-36.100489,-6.2672193)">
    <g
       id="logo"
       transform="matrix(5.9115798,0,0,5.9115798,415.60032,-1318.1308)"
       style="stroke-width:0.16916">
      <path
         fill="#ff605c"
         d="m -41.545116,227.7391 c -0.146124,0 -0.264581,0.11846 -0.264583,0.26458 v 0.52917 h -0.529167 v -0.52917 c 0,-0.35278 -0.529167,-0.35278 -0.529167,0 v 0.26458 h -2.116666 v -0.26458 c 0,-0.35278 -0.43988,-0.24932 -0.529167,0.092 v 0.4372 h -0.529167 v -0.17522 h -0.529166 v 3.87938 h 0.529166 v 0 h 0.529167 v 0.52917 h 0.529167 v -0.26458 h 2.116667 v 0.26458 c 0,0.35278 0.529167,0.35278 0.529167,0 v -0.52917 h 0.529167 v 0.52917 c 8.81e-4,0.35189 0.528284,0.35189 0.529165,0 v -4.7625 c -2e-6,-0.14612 -0.118459,-0.26458 -0.264583,-0.26458 z m -3.96875,3.96875 h -0.529167 v -0.52917 h 0.529167 z m 0,-1.05834 h -0.529167 v -0.52916 h 0.529167 z m 0,-1.05833 h -0.529167 v -0.52917 h 0.529167 z m 2.645834,2.38125 h -2.116667 v -1.32292 h 2.116667 z m 0,-1.85208 h -2.116667 v -1.32292 h 2.116667 z m 1.058334,1.5875 h -0.529167 v -0.52917 h 0.529167 z m 0,-1.05834 h -0.529167 v -0.52916 h 0.529167 z m 0,-1.05833 h -0.529167 v -0.52917 h 0.529167 z"
         id="path2-5-2-7"
         style="stroke-width:0.0447567"
         sodipodi:nodetypes="csccssccccccccccccccccsscccccsccccccccccccccccccccccccccccccccccccccccc" />
      <path
         fill="#00ca4e"
         d="m -45.077307,224.09837 a 0.26458333,0.26458333 0 0 0 -0.211667,-0.0609 l -3.439583,0.52917 a 0.26458333,0.26458333 0 0 0 -0.224896,0.26194 v 2.73843 a 0.91281249,0.91281249 0 0 0 -0.396875,-0.0926 0.92604165,0.92604165 0 1 0 0.926042,0.92604 v -2.02142 l 2.910417,-0.44714 v 1.10596 a 0.91281249,0.91281249 0 0 0 -0.396875,-0.0926 0.92604165,0.92604165 0 1 0 0.926041,0.92604 v -3.57187 a 0.26458333,0.26458333 0 0 0 -0.0926,-0.20108 z m -4.273022,4.699 a 0.396875,0.396875 0 1 1 0.396875,-0.39688 0.396875,0.396875 0 0 1 -0.396875,0.39688 z m 3.439584,-0.52917 a 0.396875,0.396875 0 1 1 0.396875,-0.39688 0.396875,0.396875 0 0 1 -0.396875,0.39688 z m 0.396875,-2.87338 -2.910417,0.44715 v -0.79375 l 2.910417,-0.43921 z"
         id="path18-5-9-0"
         style="stroke-width:0.0447567" />
      <path
         fill="#ffbd44"
         d="m -45.77829,231.97193 h -3.704167 a 0.79374999,0.79374999 0 0 0 -0.79375,0.79375 v 2.64584 a 0.79374999,0.79374999 0 0 0 0.79375,0.79375 h 3.704167 a 0.79374999,0.79374999 0 0 0 0.79375,-0.79375 v -2.64584 a 0.79374999,0.79374999 0 0 0 -0.79375,-0.79375 z m -3.704167,3.70417 a 0.26458333,0.26458333 0 0 1 -0.264583,-0.26458 v -0.6403 l 0.873125,-0.87047 a 0.26458333,0.26458333 0 0 1 0.370417,0 l 1.775354,1.77535 z m 3.96875,-0.26458 a 0.26458333,0.26458333 0 0 1 -0.264583,0.26458 h -0.20373 l -1.008062,-1.01335 0.232833,-0.23284 a 0.26458333,0.26458333 0 0 1 0.370417,0 l 0.873125,0.87048 z m 0,-0.85725 -0.497416,-0.49477 a 0.80962499,0.80962499 0 0 0 -1.121834,0 l -0.232833,0.23283 -0.762,-0.762 a 0.80962499,0.80962499 0 0 0 -1.121834,0 l -0.497416,0.49477 v -1.25942 a 0.26458333,0.26458333 0 0 1 0.264583,-0.26458 h 3.704167 a 0.26458333,0.26458333 0 0 1 0.264583,0.26458 z"
         id="path10-3-1-9"
         style="stroke-width:0.0447567" />
      <g
         aria-label="LabMult"
         id="text3051"
         style="font-size:3.50176px;line-height:1.25;stroke-width:0.0447567">
        <path
           d="m -64.196009,231.96413 h 1.635322 v -0.69335 h -0.945475 v -1.93297 h -0.689847 z"
           style="font-family:'Big John';-inkscape-font-specification:'Big John';fill:#808080"
           id="path1318" />
        <path
           d="m -61.552181,231.96413 0.157579,-0.34318 h 1.07504 l 0.161081,0.34318 h 0.689847 l -1.236121,-2.62632 h -0.311657 l -1.225616,2.62632 z m 0.69685,-1.50226 0.266134,0.57779 h -0.535769 z"
           style="font-family:'Big John';-inkscape-font-specification:'Big John';fill:#808080"
           id="path1320" />
        <path
           d="m -58.428614,231.39684 v -0.45523 h 0.462232 c 0.11906,0 0.227614,0.10155 0.227614,0.22762 0,0.12606 -0.101551,0.22761 -0.227614,0.22761 z m 0,-1.03302 v -0.45523 h 0.332667 c 0.126063,0 0.227614,0.10155 0.227614,0.22762 0,0.12606 -0.101551,0.22761 -0.227614,0.22761 z m 0.605804,1.60031 c 0.416709,0 0.770387,-0.35368 0.770387,-0.77039 0,-0.23812 -0.11906,-0.45873 -0.297649,-0.6023 0.101551,-0.12957 0.168084,-0.29415 0.168084,-0.47274 0,-0.42021 -0.357179,-0.78089 -0.777391,-0.78089 h -1.159082 v 2.62632 z"
           style="font-family:'Big John';-inkscape-font-specification:'Big John';fill:#808080"
           id="path1322" />
        <path
           d="m -56.327565,229.33781 h -0.311656 v 2.62632 h 0.693348 v -1.34468 l 0.689847,0.62331 0.686345,-0.62681 v 1.34818 h 0.693348 v -2.62632 h -0.311656 l -1.068037,0.97349 z"
           style="font-family:'Big John';-inkscape-font-specification:'Big John';fill:#808080"
           id="path1324" />
        <path
           d="m -52.657725,229.33781 h -0.693349 v 1.5898 c 0,0.57779 0.458731,1.03652 1.036521,1.03652 0.570787,0 1.036521,-0.45873 1.036521,-1.03652 v -1.5898 h -0.693348 v 1.57929 c 0,0.1891 -0.154078,0.34317 -0.343173,0.34317 -0.189095,0 -0.343172,-0.15407 -0.343172,-0.34317 z"
           style="font-family:'Big John';-inkscape-font-specification:'Big John';fill:#808080"
           id="path1326" />
        <path
           d="m -50.75277,231.96413 h 1.635322 v -0.69335 h -0.945475 v -1.93297 h -0.689847 z"
           style="font-family:'Big John';-inkscape-font-specification:'Big John';fill:#808080"
           id="path1328" />
        <path
           d="m -48.907345,230.02065 h 0.682843 v 1.94348 h 0.689847 v -1.94348 h 0.69685 v -0.68635 h -2.06954 z"
           style="font-family:'Big John';-inkscape-font-specification:'Big John';fill:#808080"
           id="path1330" />
      </g>
    </g>
  </g>
</svg>
